<?xml version="1.0" encoding="UTF-8" standalone="no"?>
<svg
   xmlns:dc="http://purl.org/dc/elements/1.1/"
   xmlns:cc="http://creativecommons.org/ns#"
   xmlns:rdf="http://www.w3.org/1999/02/22-rdf-syntax-ns#"
   xmlns:svg="http://www.w3.org/2000/svg"
   xmlns="http://www.w3.org/2000/svg"
   version="1.1"
   viewBox="0 0 512 512"
   height="512"
   width="512">
  <g>
    <path
       d="m 342.71433,67.690445 -28.90474,-43.35712 -115.61908,0 -28.90474,43.35712 -86.714322,0 0,245.690485 346.857102,0 0,-245.690485 -86.71422,0 z m 57.80948,101.166705 -58.95124,0 c 8.39679,54.25425 -33.41396,101.1667 -85.57258,101.1667 -52.202,0 -93.95494,-46.94141 -85.57257,-101.1667 l -58.95124,0 0,-72.261853 73.27356,0 28.90485,-43.357222 84.6765,0 28.90474,43.357222 73.28798,0 0,72.261853 z M 255.99999,125.50003 c -32.41668,0 -57.80948,25.00263 -57.80948,56.92795 0,32.35888 25.92756,58.69114 57.80948,58.69114 31.88193,0 57.8096,-26.33226 57.8096,-58.69114 0,-31.92531 -25.39291,-56.92795 -57.8096,-56.92795 z m -6.30125,51.37817 c -9.13386,7.26958 -21.11495,7.22619 -26.76582,-0.14448 -5.63633,-7.31296 -2.80374,-19.13493 6.33022,-26.4045 9.13385,-7.25515 21.11495,-7.21176 26.75128,0.14448 5.65087,7.29844 2.81828,19.1205 -6.31568,26.39008 z"
       style="fill:#303030;" />
    <path
       d="m 315.41658,401.19491 c -1.68417,-31.38857 -27.59106,-56.34211 -59.41659,-56.34211 -31.81755,0 -57.73242,24.95354 -59.41659,56.34211 -20.41727,3.67828 -35.91691,21.4977 -35.91691,42.96363 0,24.12733 19.56721,43.69453 43.69458,43.69453 l 103.27795,0 c 24.12726,0 43.69448,-19.5672 43.69448,-43.69453 0,-21.46593 -15.49964,-39.28535 -35.91692,-42.96363 z m -59.41659,54.88032 -31.77779,-31.77784 23.83334,0 0,-31.77783 15.8889,0 0,31.77783 23.83346,0 -31.77791,31.77784 z"
       style="fill:#303030;" />
  </g>
</svg>
