<?xml version="1.0" encoding="UTF-8" standalone="no"?>
<svg
   xmlns:dc="http://purl.org/dc/elements/1.1/"
   xmlns:cc="http://creativecommons.org/ns#"
   xmlns:rdf="http://www.w3.org/1999/02/22-rdf-syntax-ns#"
   xmlns:svg="http://www.w3.org/2000/svg"
   xmlns="http://www.w3.org/2000/svg"
   version="1.1"
   id="svg2"
   viewBox="0 0 24 24"
   height="24"
   width="24">
  <metadata
     id="metadata10">
    <rdf:RDF>
      <cc:Work
         rdf:about="">
        <dc:format>image/svg+xml</dc:format>
        <dc:type
           rdf:resource="http://purl.org/dc/dcmitype/StillImage" />
        <dc:title></dc:title>
      </cc:Work>
    </rdf:RDF>
  </metadata>
  <defs
     id="defs8" />
  <path
     id="path4"
     style="fill:#f3f3f3"
     d="m 4.5762711,7.4237288 c 2.527017,0 4.5762717,2.0492543 4.5762717,4.5762712 0,2.527017 -2.0492547,4.576271 -4.5762717,4.576271 C 2.0492542,16.576271 0,14.527017 0,12 0,9.4729831 2.0492542,7.4237288 4.5762711,7.4237288 Z M 14.755729,18.466271 c -0.06681,0.275492 -0.111661,0.559221 -0.111661,0.855763 0,2.021797 1.63922,3.661017 3.661017,3.661017 2.021797,0 3.661017,-1.63922 3.661017,-3.661017 0,-2.021797 -1.63922,-3.661017 -3.661017,-3.661017 -1.066271,0 -2.01722,0.463119 -2.686271,1.190746 l -5.022916,-2.678949 c -0.210508,0.582101 -0.502474,1.124847 -0.8630842,1.614508 l 5.0229152,2.678949 z M 21.966102,4.6779661 c 0,-2.0217966 -1.63922,-3.6610169 -3.661017,-3.6610169 -2.021797,0 -3.661017,1.6392203 -3.661017,3.6610169 0,0.2965424 0.04485,0.5802712 0.111661,0.8557627 L 9.7328138,8.212678 C 10.094339,8.702339 10.38539,9.2441695 10.595898,9.8271864 l 5.022916,-2.6789491 c 0.669051,0.7276271 1.62,1.1907458 2.686271,1.1907458 2.021797,0 3.661017,-1.6392204 3.661017,-3.661017 z" />
</svg>
