<?xml version="1.0" encoding="UTF-8" standalone="no"?>
<svg
   xmlns:dc="http://purl.org/dc/elements/1.1/"
   xmlns:cc="http://creativecommons.org/ns#"
   xmlns:rdf="http://www.w3.org/1999/02/22-rdf-syntax-ns#"
   xmlns:svg="http://www.w3.org/2000/svg"
   xmlns="http://www.w3.org/2000/svg"
   version="1.1"
   viewBox="0 0 512 512"
   height="512"
   width="512">
  <g
     transform="translate(0,-540.36216)"
     id="layer1">
    <path
       d="m 342.71433,782.33832 -28.90474,-43.35712 -115.61908,0 -28.90474,43.35712 -86.714322,0 0,245.69048 346.857102,0 0,-245.69048 -86.71422,0 z m 57.80948,101.1667 -58.95124,0 c 8.39679,54.25425 -33.41396,101.1667 -85.57258,101.1667 -52.202,0 -93.95494,-46.94141 -85.57257,-101.1667 l -58.95124,0 0,-72.26185 73.27356,0 28.90485,-43.35722 84.6765,0 28.90474,43.35722 73.28798,0 0,72.26185 z M 255.99999,840.1479 c -32.41668,0 -57.80948,25.00263 -57.80948,56.92795 0,32.35888 25.92756,58.69114 57.80948,58.69114 31.88193,0 57.8096,-26.33226 57.8096,-58.69114 0,-31.92531 -25.39291,-56.92795 -57.8096,-56.92795 z m -6.30125,51.37817 c -9.13386,7.26958 -21.11495,7.22619 -26.76582,-0.14448 -5.63633,-7.31296 -2.80374,-19.13493 6.33022,-26.4045 9.13385,-7.25515 21.11495,-7.21176 26.75128,0.14448 5.65087,7.29844 2.81828,19.1205 -6.31568,26.39008 z"
       style="fill:#303030;" />
    <path
       d="m 315.41649,620.9855 c -1.68421,-31.3884 -27.59105,-56.3419 -59.41647,-56.3419 -31.81754,0 -57.73231,24.9535 -59.41652,56.3419 -20.41721,3.6783 -35.91685,21.4978 -35.91685,42.9636 0,24.12733 19.56718,43.69453 43.69446,43.69453 l 103.27778,0 c 24.12727,0 43.69445,-19.5672 43.69445,-43.69453 0,-21.4658 -15.49961,-39.2853 -35.91685,-42.9636 z m -59.41647,-8.6753 31.77777,31.7779 -23.83333,0 0,31.7777 -15.88888,0 0,-31.7777 -23.83337,0 31.77782,-31.7779 z" 
       style="fill:#303030;"/>
  </g>
</svg>
